# xmcd CD database file generated by OrangeCD 5.2
#
# Track frame offsets:
#	150
#	11160
#	22540
#	32460
#	43672
#	52917
#	65165
#	80322
#	93047
#	102037
#	117130
#	135280
#	147420
#	159892
#	171535
#
# Disc length: 2441 seconds
#
# Revision: 3
# Processed by: cddbd v1.5.1PL0 Copyright (c) Steve Scherf et al.
# Submitted via: OrangeCD 5.2
#
DISCID=ad09870f
DTITLE=King Pleasure And The Biscuit Boys - Better Beware!
DYEAR=1994
DGENRE=Blues
TTITLE0=Better Beware
TTITLE1=That's What Makes Old KP Fat
TTITLE2=I'll Wait For You
TTITLE3=World Of Trouble
TTITLE4=Hey Baba Rebop
TTITLE5=Last Laugh Now
TTITLE6=Hot Beef
TTITLE7=Don't You Know
TTITLE8=Love Rollercoaster
TTITLE9=Money Can't Buy Love
TTITLE10=Daddy Of Jive
TTITLE11=Walk 'Em
TTITLE12=Hop Skip And Jump
TTITLE13=Feelin' Happy
TTITLE14=Let 'Em Roll Again
EXTD=
EXTT0=
EXTT1=
EXTT2=
EXTT3=
EXTT4=
EXTT5=
EXTT6=
EXTT7=
EXTT8=
EXTT9=
EXTT10=
EXTT11=
EXTT12=
EXTT13=
EXTT14=
PLAYORDER=
